<?xml version="1.0" encoding="UTF-8"?>
<svg width="195px" height="43px" viewBox="0 0 195 43" version="1.1" xmlns="http://www.w3.org/2000/svg" xmlns:xlink="http://www.w3.org/1999/xlink">
    <title>Group 2</title>
    <defs>
        <linearGradient x1="-45.6158259%" y1="89.9317397%" x2="441.172877%" y2="211.076212%" id="linearGradient-1">
            <stop stop-color="#FF9900" offset="0%"></stop>
            <stop stop-color="#00CFE6" offset="100%"></stop>
        </linearGradient>
    </defs>
    <g id="Page-1" stroke="none" stroke-width="1" fill="none" fill-rule="evenodd">
        <g id="Letter" transform="translate(-185.000000, -465.000000)" fill-rule="nonzero">
            <g id="Group-2" transform="translate(185.034442, 465.073824)">
                <path d="M66.6275999,22.2119294 L70.9972095,10.643299 L67.5784994,10.643299 L65.0654078,19.2461944 L62.5975972,10.643299 L59.0883252,10.643299 L63.4805753,22.2119294 L66.6275999,22.2119294 Z M75.5906362,8.94202981 C76.1550255,8.94202981 76.6080222,8.7893518 76.9496263,8.4839958 C77.2912303,8.17863979 77.4620323,7.76422807 77.4620323,7.24076063 C77.4620323,6.71729319 77.2912303,6.30288147 76.9496263,5.99752547 C76.6080222,5.69216946 76.1550255,5.53949146 75.5906362,5.53949146 C75.0262469,5.53949146 74.5732503,5.69216946 74.2316462,5.99752547 C73.8900422,6.30288147 73.7192401,6.71729319 73.7192401,7.24076063 C73.7192401,7.76422807 73.8900422,8.17863979 74.2316462,8.4839958 C74.5732503,8.7893518 75.0262469,8.94202981 75.5906362,8.94202981 Z M77.4620323,22.2119294 L77.4620323,10.643299 L74.059494,10.643299 L74.059494,22.2119294 L77.4620323,22.2119294 Z M85.2052249,22.5521832 C86.5533452,22.5521832 87.6413662,22.2094183 88.4692879,21.5238884 C89.2972095,20.8383585 89.7111704,19.9381298 89.7111704,18.8232021 C89.7111704,18.0246728 89.5170118,17.3768094 89.1286945,16.8796119 C88.7403773,16.3824144 88.0919607,15.9454833 87.1834449,15.5688185 L87.1834449,15.5688185 L85.512948,14.8682221 C84.9707692,14.6422232 84.6154223,14.4501242 84.4469072,14.291925 C84.2783922,14.1337258 84.1941347,13.9265602 84.1941347,13.6704281 C84.1941347,13.3389631 84.3333428,13.0978977 84.6117589,12.9472318 C84.8901751,12.7965659 85.3297795,12.7212329 85.9305722,12.7212329 C86.897702,12.7212329 87.9380992,12.8944987 89.0517637,13.2410303 L89.0517637,13.2410303 L89.0517637,11.0488414 C88.0113666,10.5516439 86.8757218,10.3030451 85.6448293,10.3030451 C84.3113625,10.3030451 83.2453218,10.6156769 82.4467071,11.2409404 C81.6480923,11.8662039 81.248785,12.6910997 81.248785,13.7156279 C81.248785,14.5292238 81.446607,15.1996871 81.842251,15.7270177 C82.2378949,16.2543484 82.8826481,16.6988128 83.7765105,17.060411 L83.7765105,17.060411 L85.4909678,17.7610074 C86.0038396,17.9568731 86.3445331,18.1376722 86.5130481,18.3034047 C86.6815631,18.4691372 86.7658207,18.7026693 86.7658207,19.0040012 C86.7658207,19.7573307 86.2382953,20.1339954 85.1832447,20.1339954 C83.9816592,20.1339954 82.6555192,19.9004633 81.2048245,19.433399 L81.2048245,19.433399 L81.2048245,21.6255879 C82.3624495,22.2433181 83.6959163,22.5521832 85.2052249,22.5521832 Z M96.6218431,22.5521832 C98.0444561,22.5521832 99.4084047,22.0314525 100.713689,20.9899912 L100.713689,20.9899912 L101.021677,22.2125762 L103.661578,22.2125762 L103.661578,10.643299 L100.449699,10.643299 L100.449699,19.2919563 C99.7163931,19.7749529 98.9684213,20.0164512 98.2057834,20.0164512 C97.1791554,20.0164512 96.6658415,19.4051587 96.6658415,18.1825736 L96.6658415,18.1825736 L96.6658415,10.643299 L93.4539626,10.643299 L93.4539626,19.1108326 C93.4539626,20.1824813 93.7326187,21.0239519 94.2899311,21.6352444 C94.8472434,22.2465369 95.6245474,22.5521832 96.6218431,22.5521832 Z M111.059779,22.5521832 C111.627899,22.5521832 112.214708,22.4278838 112.820206,22.1792851 C113.425703,21.9306864 113.960185,21.5954547 114.423652,21.1735902 L114.423652,21.1735902 L114.692762,22.190585 L117.271731,22.190585 L117.271731,14.1902255 C117.271731,12.8492989 116.916656,11.8662039 116.206505,11.2409404 C115.496354,10.6156769 114.371325,10.3030451 112.831418,10.3030451 C111.964287,10.3030451 111.112106,10.389678 110.274875,10.5629438 C109.437644,10.7362096 108.742444,10.9659751 108.189274,11.2522403 L108.189274,11.2522403 L108.189274,13.4444293 C109.669378,12.977365 111.022402,12.7438328 112.248347,12.7438328 C113.010825,12.7438328 113.534094,12.8718988 113.818155,13.1280309 C114.102215,13.3841629 114.244245,13.8587605 114.244245,14.5518237 L114.244245,14.5518237 L114.244245,15.6818179 C113.377113,15.4859523 112.584734,15.3880194 111.867108,15.3880194 C110.955125,15.3880194 110.162746,15.5462186 109.489971,15.862617 C108.817197,16.1790154 108.301403,16.6121799 107.94259,17.1621105 C107.583776,17.712041 107.40437,18.3486045 107.40437,19.0718008 C107.40437,20.1264621 107.737019,20.9701912 108.402319,21.602988 C109.067618,22.2357848 109.953438,22.5521832 111.059779,22.5521832 Z M111.932205,20.1704064 C111.466235,20.1704064 111.105484,20.041866 110.849952,19.7847854 C110.59442,19.5277047 110.466654,19.1647673 110.466654,18.6959731 C110.466654,17.6374056 111.120516,17.1081218 112.428238,17.1081218 C112.954333,17.1081218 113.54807,17.1610502 114.209447,17.266907 L114.209447,17.266907 L114.209447,19.2403792 C113.863727,19.5277047 113.491702,19.7545406 113.093373,19.9208869 C112.695044,20.0872332 112.307988,20.1704064 111.932205,20.1704064 Z M124.757315,22.2119294 C125.48319,22.2119294 126.163698,22.0854539 126.798838,21.8325031 L126.798838,21.8325031 L126.798838,19.6452221 C126.435901,19.6898605 126.148576,19.7121796 125.936862,19.7121796 C125.604169,19.7121796 125.365992,19.6266227 125.222329,19.4555089 C125.078666,19.2843951 125.006835,18.9905257 125.006835,18.5739008 L125.006835,18.5739008 L125.006835,5.53949146 L121.695031,5.53949146 L121.695031,18.8417311 C121.695031,21.0885299 122.715792,22.2119294 124.757315,22.2119294 Z M140.661862,22.5521832 C141.229983,22.5521832 141.816792,22.4278838 142.422289,22.1792851 C143.027786,21.9306864 143.562268,21.5954547 144.025735,21.1735902 L144.025735,21.1735902 L144.294845,22.190585 L146.873815,22.190585 L146.873815,14.1902255 C146.873815,12.8492989 146.518739,11.8662039 145.808588,11.2409404 C145.098437,10.6156769 143.973409,10.3030451 142.433502,10.3030451 C141.56637,10.3030451 140.714189,10.389678 139.876959,10.5629438 C139.039728,10.7362096 138.344527,10.9659751 137.791357,11.2522403 L137.791357,11.2522403 L137.791357,13.4444293 C139.271461,12.977365 140.624486,12.7438328 141.850431,12.7438328 C142.612909,12.7438328 143.136178,12.8718988 143.420238,13.1280309 C143.704299,13.3841629 143.846329,13.8587605 143.846329,14.5518237 L143.846329,14.5518237 L143.846329,15.6818179 C142.979197,15.4859523 142.186818,15.3880194 141.469192,15.3880194 C140.557208,15.3880194 139.764829,15.5462186 139.092055,15.862617 C138.41928,16.1790154 137.903486,16.6121799 137.544673,17.1621105 C137.18586,17.712041 137.006453,18.3486045 137.006453,19.0718008 C137.006453,20.1264621 137.339103,20.9701912 138.004403,21.602988 C138.669702,22.2357848 139.555522,22.5521832 140.661862,22.5521832 Z M141.534289,20.1704064 C141.068319,20.1704064 140.707568,20.041866 140.452036,19.7847854 C140.196504,19.5277047 140.068738,19.1647673 140.068738,18.6959731 C140.068738,17.6374056 140.722599,17.1081218 142.030322,17.1081218 C142.556417,17.1081218 143.150153,17.1610502 143.81153,17.266907 L143.81153,17.266907 L143.81153,19.2403792 C143.46581,19.5277047 143.093786,19.7545406 142.695457,19.9208869 C142.297127,20.0872332 141.910071,20.1704064 141.534289,20.1704064 Z M154.276753,22.5521832 C155.624874,22.5521832 156.712895,22.2094183 157.540816,21.5238884 C158.368738,20.8383585 158.782699,19.9381298 158.782699,18.8232021 C158.782699,18.0246728 158.58854,17.3768094 158.200223,16.8796119 C157.811906,16.3824144 157.163489,15.9454833 156.254973,15.5688185 L156.254973,15.5688185 L154.584477,14.8682221 C154.042298,14.6422232 153.686951,14.4501242 153.518436,14.291925 C153.349921,14.1337258 153.265663,13.9265602 153.265663,13.6704281 C153.265663,13.3389631 153.404871,13.0978977 153.683287,12.9472318 C153.961704,12.7965659 154.401308,12.7212329 155.002101,12.7212329 C155.969231,12.7212329 157.009628,12.8944987 158.123292,13.2410303 L158.123292,13.2410303 L158.123292,11.0488414 C157.082895,10.5516439 155.94725,10.3030451 154.716358,10.3030451 C153.382891,10.3030451 152.31685,10.6156769 151.518236,11.2409404 C150.719621,11.8662039 150.320313,12.6910997 150.320313,13.7156279 C150.320313,14.5292238 150.518135,15.1996871 150.913779,15.7270177 C151.309423,16.2543484 151.954177,16.6988128 152.848039,17.060411 L152.848039,17.060411 L154.562496,17.7610074 C155.075368,17.9568731 155.416062,18.1376722 155.584577,18.3034047 C155.753092,18.4691372 155.837349,18.7026693 155.837349,19.0040012 C155.837349,19.7573307 155.309824,20.1339954 154.254773,20.1339954 C153.053188,20.1339954 151.727048,19.9004633 150.276353,19.433399 L150.276353,19.433399 L150.276353,21.6255879 C151.433978,22.2433181 152.767445,22.5521832 154.276753,22.5521832 Z M165.845384,22.5521832 C167.193504,22.5521832 168.281525,22.2094183 169.109447,21.5238884 C169.937368,20.8383585 170.351329,19.9381298 170.351329,18.8232021 C170.351329,18.0246728 170.157171,17.3768094 169.768853,16.8796119 C169.380536,16.3824144 168.73212,15.9454833 167.823604,15.5688185 L167.823604,15.5688185 L166.153107,14.8682221 C165.610928,14.6422232 165.255581,14.4501242 165.087066,14.291925 C164.918551,14.1337258 164.834294,13.9265602 164.834294,13.6704281 C164.834294,13.3389631 164.973502,13.0978977 165.251918,12.9472318 C165.530334,12.7965659 165.969938,12.7212329 166.570731,12.7212329 C167.537861,12.7212329 168.578258,12.8944987 169.691923,13.2410303 L169.691923,13.2410303 L169.691923,11.0488414 C168.651525,10.5516439 167.515881,10.3030451 166.284988,10.3030451 C164.951521,10.3030451 163.885481,10.6156769 163.086866,11.2409404 C162.288251,11.8662039 161.888944,12.6910997 161.888944,13.7156279 C161.888944,14.5292238 162.086766,15.1996871 162.48241,15.7270177 C162.878054,16.2543484 163.522807,16.6988128 164.416669,17.060411 L164.416669,17.060411 L166.131127,17.7610074 C166.643999,17.9568731 166.984692,18.1376722 167.153207,18.3034047 C167.321722,18.4691372 167.40598,18.7026693 167.40598,19.0040012 C167.40598,19.7573307 166.878454,20.1339954 165.823404,20.1339954 C164.621818,20.1339954 163.295678,19.9004633 161.844983,19.433399 L161.844983,19.433399 L161.844983,21.6255879 C163.002608,22.2433181 164.336075,22.5521832 165.845384,22.5521832 Z M179.39236,22.5521832 C180.144159,22.5521832 180.870657,22.476711 181.571854,22.3257666 C182.273051,22.1748222 182.876659,21.9635 183.382677,21.6918001 L183.382677,21.6918001 L183.382677,19.4955591 C182.095944,19.8729201 180.968246,20.0616006 179.999582,20.0616006 C178.886341,20.0616006 178.069483,19.8389576 177.549007,19.3936716 C177.02853,18.9483857 176.739377,18.2276261 176.681546,17.2313931 L176.681546,17.2313931 L183.404364,17.2313931 C183.462194,16.9596932 183.512796,16.6125211 183.556169,16.1898767 C183.599542,15.7672324 183.621229,15.3898714 183.621229,15.0577937 C183.621229,13.5332553 183.234486,12.3596626 182.461001,11.5370156 C181.687515,10.7143686 180.585118,10.3030451 179.153808,10.3030451 C177.462261,10.3030451 176.139384,10.8388978 175.185177,11.910603 C174.230971,12.9823082 173.753868,14.484205 173.753868,16.4162933 C173.753868,18.4238539 174.234585,19.9483923 175.19602,20.9899087 C176.157456,22.031425 177.556235,22.5521832 179.39236,22.5521832 Z M180.558944,15.0665988 L176.135645,15.0665988 C176.195825,14.2933843 176.440311,13.7031179 176.8691,13.2957995 C177.297889,12.8884812 177.880892,12.684822 178.618109,12.684822 C179.911999,12.684822 180.558944,13.3613847 180.558944,14.7145101 L180.558944,14.7145101 L180.558944,15.0665988 Z M191.454545,22.2119294 C192.456611,22.2119294 193.361462,22.0560444 194.169098,21.7442746 L194.169098,21.7442746 L194.169098,19.5618854 C193.570849,19.6509625 193.039904,19.6955011 192.576261,19.6955011 C192.007925,19.6955011 191.604107,19.5990009 191.364808,19.4060005 C191.125509,19.2130001 191.005859,18.8789609 191.005859,18.403883 L191.005859,18.403883 L191.005859,13.0592566 L194.101795,13.0592566 L194.101795,10.6541747 L191.005859,10.6541747 L191.005859,7.58101447 L188.313741,7.58101447 L187.820186,10.6987132 L186.003006,11.0550217 L186.003006,13.0592566 L187.730448,13.0592566 L187.730448,18.559768 C187.730448,19.8068475 188.033312,20.7273109 188.639038,21.3211583 C189.244765,21.9150057 190.183267,22.2119294 191.454545,22.2119294 Z" id="visualasset" fill="#232F3E"></path>
                <path d="M44.5393992,38.8843673 L44.5393992,33.1769677 C45.2196032,32.7563218 45.9289588,32.5459989 46.667466,32.5459989 C47.0658712,32.5459989 47.3573872,32.6607205 47.542014,32.8901637 C47.7266408,33.1196069 47.8189542,33.4733318 47.8189542,33.9513385 L47.8189542,33.9513385 L47.8189542,38.8843673 L49.2619585,38.8843673 L49.2619585,33.4064109 C49.2619585,33.3299298 49.2570999,33.2582288 49.2473827,33.1913079 C49.9664555,32.7611019 50.6806697,32.5459989 51.3900253,32.5459989 C51.7884305,32.5459989 52.0799465,32.6607205 52.2645733,32.8901637 C52.4492001,33.1196069 52.5415135,33.4733318 52.5415135,33.9513385 L52.5415135,33.9513385 L52.5415135,38.8843673 L53.9845177,38.8843673 L53.9845177,33.5498129 C53.9845177,32.8614833 53.8047495,32.3308959 53.4452131,31.9580507 C53.0856767,31.5852055 52.5706651,31.3987829 51.9001783,31.3987829 C50.9381755,31.3987829 49.9761727,31.7381677 49.0141699,32.4169371 C48.6935023,31.7381677 48.0813186,31.3987829 47.177619,31.3987829 C46.2933538,31.3987829 45.3847956,31.7142673 44.4519444,32.3452361 L44.4519444,32.3452361 L44.3061864,31.6138859 L43.096395,31.6138859 L43.096395,38.8843673 L44.5393992,38.8843673 Z M58.6853061,39.2246211 C59.1114493,39.2246211 59.54007,39.1417306 59.9711683,38.9759496 C60.4022666,38.8101686 60.7962013,38.5761249 61.1529723,38.2738184 L61.1529723,38.2738184 L61.271896,39.0344606 L62.4908636,39.0344606 L62.4908636,33.7392205 C62.4908636,32.9493228 62.2678817,32.3617755 61.8219179,31.9765785 C61.3759542,31.5913814 60.6822328,31.3987829 59.7407537,31.3987829 C59.2155075,31.3987829 58.6952164,31.44998 58.1798805,31.5523741 C57.6645446,31.6547683 57.2284912,31.7986077 56.8717202,31.9838923 L56.8717202,31.9838923 L56.8717202,33.0078338 C57.773558,32.7055272 58.6456649,32.554374 59.4880409,32.554374 C60.072749,32.554374 60.4865042,32.661644 60.7293067,32.8761842 C60.9721092,33.0907243 61.0935105,33.4612936 61.0935105,33.987892 L61.0935105,33.987892 L61.0935105,34.9533225 C60.4196097,34.7875415 59.7952604,34.704651 59.2204626,34.704651 C58.3483557,34.704651 57.6546343,34.9167532 57.1392984,35.3409575 C56.6239625,35.7651618 56.3662946,36.3332055 56.3662946,37.0450886 C56.3662946,37.7082126 56.5768886,38.237249 56.9980766,38.6321979 C57.4192646,39.0271467 57.9816744,39.2246211 58.6853061,39.2246211 Z M59.2001895,38.2038596 C58.8366306,38.2038596 58.5569699,38.1058146 58.3612075,37.9097245 C58.165445,37.7136345 58.0675637,37.4338474 58.0675637,37.0703634 C58.0675637,36.2381763 58.594258,35.8220828 59.6476466,35.8220828 C60.1510358,35.8220828 60.6451031,35.8842577 61.1298482,36.0086075 L61.1298482,36.0086075 L61.1298482,37.4721089 C60.4773066,37.9599427 59.8340871,38.2038596 59.2001895,38.2038596 Z M67.0011514,38.8843673 L67.0011514,33.2773491 C67.7422171,32.7897823 68.497909,32.5459989 69.2682273,32.5459989 C69.7167671,32.5459989 70.0458587,32.6655006 70.2555023,32.9045039 C70.4651459,33.1435072 70.5699677,33.5163524 70.5699677,34.0230395 L70.5699677,34.0230395 L70.5699677,38.8843673 L72.017971,38.8843673 L72.017971,33.5498129 C72.017971,32.8519232 71.8327046,32.3189458 71.4621717,31.9508806 C71.0916389,31.5828155 70.5504659,31.3987829 69.8386529,31.3987829 C68.8148121,31.3987829 67.8397257,31.7381677 66.9133936,32.4169371 L66.9133936,32.4169371 L66.7671307,31.6138859 L65.5531481,31.6138859 L65.5531481,38.8843673 L67.0011514,38.8843673 Z M76.7187594,39.2246211 C77.1449025,39.2246211 77.5735233,39.1417306 78.0046216,38.9759496 C78.4357199,38.8101686 78.8296545,38.5761249 79.1864256,38.2738184 L79.1864256,38.2738184 L79.3053492,39.0344606 L80.5243168,39.0344606 L80.5243168,33.7392205 C80.5243168,32.9493228 80.301335,32.3617755 79.8553712,31.9765785 C79.4094074,31.5913814 78.715686,31.3987829 77.774207,31.3987829 C77.2489608,31.3987829 76.7286697,31.44998 76.2133338,31.5523741 C75.6979979,31.6547683 75.2619444,31.7986077 74.9051734,31.9838923 L74.9051734,31.9838923 L74.9051734,33.0078338 C75.8070112,32.7055272 76.6791182,32.554374 77.5214942,32.554374 C78.1062022,32.554374 78.5199575,32.661644 78.76276,32.8761842 C79.0055625,33.0907243 79.1269637,33.4612936 79.1269637,33.987892 L79.1269637,33.987892 L79.1269637,34.9533225 C78.4530629,34.7875415 77.8287136,34.704651 77.2539159,34.704651 C76.381809,34.704651 75.6880876,34.9167532 75.1727517,35.3409575 C74.6574158,35.7651618 74.3997478,36.3332055 74.3997478,37.0450886 C74.3997478,37.7082126 74.6103418,38.237249 75.0315298,38.6321979 C75.4527178,39.0271467 76.0151277,39.2246211 76.7187594,39.2246211 Z M77.2336428,38.2038596 C76.8700839,38.2038596 76.5904232,38.1058146 76.3946607,37.9097245 C76.1988982,37.7136345 76.101017,37.4338474 76.101017,37.0703634 C76.101017,36.2381763 76.6277113,35.8220828 77.6810999,35.8220828 C78.1844891,35.8220828 78.6785563,35.8842577 79.1633015,36.0086075 L79.1633015,36.0086075 L79.1633015,37.4721089 C78.5107599,37.9599427 77.8675403,38.2038596 77.2336428,38.2038596 Z M86.4260122,42.2869056 C87.5849554,42.2869056 88.4789265,41.9681093 89.1079256,41.3305165 C89.7369247,40.6929237 90.0514242,39.7904847 90.0514242,38.6231995 L90.0514242,38.6231995 L90.0514242,31.6194881 L88.8181898,31.6194881 L88.6993238,32.311031 C88.0356555,31.7028656 87.258074,31.3987829 86.3665792,31.3987829 C85.4156515,31.3987829 84.6578809,31.7445544 84.0932676,32.4360973 C83.5286542,33.1276402 83.2463475,34.0619589 83.2463475,35.2390532 C83.2463475,35.9943554 83.3775954,36.6540187 83.640091,37.2180431 C83.9025867,37.7820675 84.2666138,38.2112165 84.7321721,38.50549 C85.1977305,38.7997636 85.7326274,38.9469004 86.3368627,38.9469004 C86.7330826,38.9469004 87.1243498,38.8708798 87.5106642,38.7188384 C87.8969785,38.566797 88.2585292,38.3485441 88.5953161,38.0640797 L88.5953161,38.0640797 L88.5953161,38.7261952 C88.5953161,39.5599704 88.4120644,40.1656835 88.045561,40.5433346 C87.6790576,40.9209857 87.099586,41.1098113 86.3071462,41.1098113 C85.5840449,41.1098113 84.7668414,40.9577699 83.8555356,40.6536872 L83.8555356,40.6536872 L83.8555356,41.6983585 C84.6380699,42.0907233 85.4948954,42.2869056 86.4260122,42.2869056 Z M86.57269,37.523352 C85.9272149,37.523352 85.4382916,37.308886 85.1059201,36.8799541 C84.7735486,36.4510222 84.6073629,35.8172633 84.6073629,34.9786774 C84.6073629,33.2725887 85.2335701,32.4195444 86.4859844,32.4195444 C86.8424408,32.4195444 87.1699954,32.4701488 87.468648,32.5713574 C87.7673007,32.672566 88.0611364,32.8340179 88.3501551,33.0557131 L88.3501551,33.0557131 L88.3501551,36.8582666 C87.7624837,37.3016568 87.1699954,37.523352 86.57269,37.523352 Z M96.1252673,39.2246211 C97.1533126,39.2246211 98.023197,39.0351688 98.7349206,38.6562642 L98.7349206,38.6562642 L98.7349206,37.621563 C97.9243465,37.9227436 97.1285999,38.0733339 96.347681,38.0733339 C95.5074517,38.0733339 94.8871648,37.8741661 94.4868203,37.4758305 C94.0864757,37.0774948 93.8764184,36.4605603 93.8566483,35.625027 L93.8566483,35.625027 L98.7794033,35.625027 C98.8584837,35.2558379 98.8980239,34.842929 98.8980239,34.3863003 C98.8980239,33.4341809 98.6459552,32.6982315 98.1418176,32.1784521 C97.63768,31.6586726 96.9160714,31.3987829 95.9769916,31.3987829 C94.8599809,31.3987829 93.9900965,31.7412544 93.3673383,32.4261974 C92.7445802,33.1111404 92.4332011,34.0705464 92.4332011,35.3044154 C92.4332011,36.5965774 92.7445802,37.5729855 93.3673383,38.2336398 C93.9900965,38.894294 94.9094062,39.2246211 96.1252673,39.2246211 Z M97.5220374,34.4610674 L93.7942164,34.4610674 C93.8441203,33.7851269 94.0437359,33.275888 94.3930632,32.9333506 C94.7423904,32.5908131 95.2314486,32.4195444 95.8602377,32.4195444 C96.4091806,32.4195444 96.8258781,32.5611266 97.1103303,32.8442908 C97.3947825,33.1274551 97.5370086,33.5476343 97.5370086,34.1048285 C97.5370086,34.2692465 97.5320182,34.3879928 97.5220374,34.4610674 L97.5220374,34.4610674 Z M102.722805,38.8843673 L102.722805,33.1769677 C103.403009,32.7563218 104.112365,32.5459989 104.850872,32.5459989 C105.249277,32.5459989 105.540793,32.6607205 105.72542,32.8901637 C105.910047,33.1196069 106.00236,33.4733318 106.00236,33.9513385 L106.00236,33.9513385 L106.00236,38.8843673 L107.445364,38.8843673 L107.445364,33.4064109 C107.445364,33.3299298 107.440506,33.2582288 107.430788,33.1913079 C108.149861,32.7611019 108.864075,32.5459989 109.573431,32.5459989 C109.971836,32.5459989 110.263352,32.6607205 110.447979,32.8901637 C110.632606,33.1196069 110.724919,33.4733318 110.724919,33.9513385 L110.724919,33.9513385 L110.724919,38.8843673 L112.167924,38.8843673 L112.167924,33.5498129 C112.167924,32.8614833 111.988155,32.3308959 111.628619,31.9580507 C111.269082,31.5852055 110.754071,31.3987829 110.083584,31.3987829 C109.121581,31.3987829 108.159578,31.7381677 107.197576,32.4169371 C106.876908,31.7381677 106.264724,31.3987829 105.361025,31.3987829 C104.47676,31.3987829 103.568201,31.7142673 102.63535,32.3452361 L102.63535,32.3452361 L102.489592,31.6138859 L101.279801,31.6138859 L101.279801,38.8843673 L102.722805,38.8843673 Z M118.58202,39.2246211 C119.610066,39.2246211 120.47995,39.0351688 121.191674,38.6562642 L121.191674,38.6562642 L121.191674,37.621563 C120.3811,37.9227436 119.585353,38.0733339 118.804434,38.0733339 C117.964205,38.0733339 117.343918,37.8741661 116.943573,37.4758305 C116.543229,37.0774948 116.333172,36.4605603 116.313401,35.625027 L116.313401,35.625027 L121.236156,35.625027 C121.315237,35.2558379 121.354777,34.842929 121.354777,34.3863003 C121.354777,33.4341809 121.102708,32.6982315 120.598571,32.1784521 C120.094433,31.6586726 119.372824,31.3987829 118.433745,31.3987829 C117.316734,31.3987829 116.44685,31.7412544 115.824091,32.4261974 C115.201333,33.1111404 114.889954,34.0705464 114.889954,35.3044154 C114.889954,36.5965774 115.201333,37.5729855 115.824091,38.2336398 C116.44685,38.894294 117.366159,39.2246211 118.58202,39.2246211 Z M119.978791,34.4610674 L116.25097,34.4610674 C116.300873,33.7851269 116.500489,33.275888 116.849816,32.9333506 C117.199144,32.5908131 117.688202,32.4195444 118.316991,32.4195444 C118.865934,32.4195444 119.282631,32.5611266 119.567083,32.8442908 C119.851536,33.1274551 119.993762,33.5476343 119.993762,34.1048285 C119.993762,34.2692465 119.988771,34.3879928 119.978791,34.4610674 L119.978791,34.4610674 Z M125.184557,38.8843673 L125.184557,33.2773491 C125.925623,32.7897823 126.681315,32.5459989 127.451633,32.5459989 C127.900173,32.5459989 128.229265,32.6655006 128.438908,32.9045039 C128.648552,33.1435072 128.753373,33.5163524 128.753373,34.0230395 L128.753373,34.0230395 L128.753373,38.8843673 L130.201377,38.8843673 L130.201377,33.5498129 C130.201377,32.8519232 130.01611,32.3189458 129.645578,31.9508806 C129.275045,31.5828155 128.733872,31.3987829 128.022059,31.3987829 C126.998218,31.3987829 126.023132,31.7381677 125.096799,32.4169371 L125.096799,32.4169371 L124.950536,31.6138859 L123.736554,31.6138859 L123.736554,38.8843673 L125.184557,38.8843673 Z M136.044867,39.2246211 C136.656337,39.2246211 137.203702,39.1326419 137.686961,38.9486836 L137.686961,38.9486836 L137.686961,37.9175485 C137.292464,38.0143687 136.893036,38.0627788 136.488676,38.0627788 C136.094179,38.0627788 135.815565,37.9901636 135.652835,37.8449333 C135.490105,37.699703 135.40874,37.4479705 135.40874,37.0897358 L135.40874,37.0897358 L135.40874,32.8925802 L137.627787,32.8925802 L137.627787,31.7597839 L135.40874,31.7597839 L135.40874,29.6975137 L134.210455,29.6975137 L133.98855,31.78883 L132.583154,31.9631064 L132.583154,32.8925802 L133.944169,32.8925802 L133.944169,37.1623509 C133.944169,38.5371977 134.644401,39.2246211 136.044867,39.2246211 Z M146.369942,39.2246211 C147.242578,39.2246211 147.941679,39.0205956 148.467244,38.6125444 C148.992809,38.2044932 149.255592,37.6555673 149.255592,36.9657665 C149.255592,36.4799913 149.126679,36.0840846 148.868855,35.7780462 C148.611031,35.4720078 148.189587,35.2072604 147.604524,34.9838038 L147.604524,34.9838038 L146.444314,34.5466061 C145.978247,34.371727 145.665883,34.2114212 145.507221,34.0656887 C145.34856,33.9199561 145.26923,33.7207883 145.26923,33.4681852 C145.26923,32.8366775 145.745213,32.5209236 146.69718,32.5209236 C147.351658,32.5209236 148.065633,32.6423674 148.839106,32.885255 L148.839106,32.885255 L148.839106,31.8651271 C148.144963,31.554231 147.406197,31.3987829 146.622808,31.3987829 C145.809669,31.3987829 145.152713,31.593093 144.651939,31.9817131 C144.151164,32.3703333 143.900777,32.8803972 143.900777,33.511905 C143.900777,34.4737398 144.451133,35.1538251 145.551845,35.5521607 L145.551845,35.5521607 L146.816176,36.0185049 C147.222745,36.1642375 147.502881,36.30997 147.656584,36.4557026 C147.810287,36.6014351 147.887139,36.7908875 147.887139,37.0240595 C147.887139,37.3738177 147.760706,37.640994 147.50784,37.8255886 C147.254973,38.0101832 146.88559,38.1024805 146.39969,38.1024805 C145.606385,38.1024805 144.743665,37.9518901 143.81153,37.6507095 L143.81153,37.6507095 L143.81153,38.6708374 C144.535422,39.0400266 145.388226,39.2246211 146.369942,39.2246211 Z M152.190023,42.2869056 C152.72893,42.2869056 153.17401,42.1414178 153.525262,41.8504421 C153.876514,41.5594664 154.177243,41.0793565 154.42745,40.4101124 L154.42745,40.4101124 L157.761937,31.7390368 L156.289566,31.7390368 L154.25423,37.7767824 L152.146718,31.7390368 L150.616607,31.7390368 L153.561349,39.1880145 L153.287084,39.9300025 C153.123487,40.3858644 152.938238,40.7035129 152.731336,40.8829479 C152.524434,41.0623829 152.242951,41.1521004 151.886888,41.1521004 C151.598188,41.1521004 151.323922,41.1181533 151.064092,41.0502589 L151.064092,41.0502589 L151.064092,42.0832227 C151.410532,42.2190113 151.785843,42.2869056 152.190023,42.2869056 Z M162.021618,39.2246211 C162.894254,39.2246211 163.593355,39.0205956 164.11892,38.6125444 C164.644485,38.2044932 164.907268,37.6555673 164.907268,36.9657665 C164.907268,36.4799913 164.778356,36.0840846 164.520531,35.7780462 C164.262707,35.4720078 163.841263,35.2072604 163.2562,34.9838038 L163.2562,34.9838038 L162.09599,34.5466061 C161.629923,34.371727 161.317559,34.2114212 161.158898,34.0656887 C161.000237,33.9199561 160.920906,33.7207883 160.920906,33.4681852 C160.920906,32.8366775 161.39689,32.5209236 162.348857,32.5209236 C163.003334,32.5209236 163.717309,32.6423674 164.490782,32.885255 L164.490782,32.885255 L164.490782,31.8651271 C163.79664,31.554231 163.057874,31.3987829 162.274484,31.3987829 C161.461346,31.3987829 160.804389,31.593093 160.303615,31.9817131 C159.802841,32.3703333 159.552453,32.8803972 159.552453,33.511905 C159.552453,34.4737398 160.102809,35.1538251 161.203521,35.5521607 L161.203521,35.5521607 L162.467852,36.0185049 C162.874422,36.1642375 163.154558,36.30997 163.308261,36.4557026 C163.461964,36.6014351 163.538815,36.7908875 163.538815,37.0240595 C163.538815,37.3738177 163.412382,37.640994 163.159516,37.8255886 C162.90665,38.0101832 162.537267,38.1024805 162.051367,38.1024805 C161.258061,38.1024805 160.395341,37.9518901 159.463207,37.6507095 L159.463207,37.6507095 L159.463207,38.6708374 C160.187098,39.0400266 161.039902,39.2246211 162.021618,39.2246211 Z M169.729996,39.2246211 C170.341467,39.2246211 170.888832,39.1326419 171.372091,38.9486836 L171.372091,38.9486836 L171.372091,37.9175485 C170.977594,38.0143687 170.578165,38.0627788 170.173806,38.0627788 C169.779308,38.0627788 169.500695,37.9901636 169.337965,37.8449333 C169.175235,37.699703 169.093869,37.4479705 169.093869,37.0897358 L169.093869,37.0897358 L169.093869,32.8925802 L171.312916,32.8925802 L171.312916,31.7597839 L169.093869,31.7597839 L169.093869,29.6975137 L167.895584,29.6975137 L167.67368,31.78883 L166.268283,31.9631064 L166.268283,32.8925802 L167.629299,32.8925802 L167.629299,37.1623509 C167.629299,38.5371977 168.329531,39.2246211 169.729996,39.2246211 Z M176.765426,39.2246211 C177.793471,39.2246211 178.663356,39.0351688 179.37508,38.6562642 L179.37508,38.6562642 L179.37508,37.621563 C178.564505,37.9227436 177.768759,38.0733339 176.98784,38.0733339 C176.147611,38.0733339 175.527324,37.8741661 175.126979,37.4758305 C174.726635,37.0774948 174.516577,36.4605603 174.496807,35.625027 L174.496807,35.625027 L179.419562,35.625027 C179.498643,35.2558379 179.538183,34.842929 179.538183,34.3863003 C179.538183,33.4341809 179.286114,32.6982315 178.781977,32.1784521 C178.277839,31.6586726 177.55623,31.3987829 176.617151,31.3987829 C175.50014,31.3987829 174.630255,31.7412544 174.007497,32.4261974 C173.384739,33.1111404 173.07336,34.0705464 173.07336,35.3044154 C173.07336,36.5965774 173.384739,37.5729855 174.007497,38.2336398 C174.630255,38.894294 175.549565,39.2246211 176.765426,39.2246211 Z M178.50245,34.4610674 L174.774629,34.4610674 C174.824533,33.7851269 175.024149,33.275888 175.373476,32.9333506 C175.722803,32.5908131 176.211861,32.4195444 176.84065,32.4195444 C177.389593,32.4195444 177.806291,32.5611266 178.090743,32.8442908 C178.375195,33.1274551 178.517421,33.5476343 178.517421,34.1048285 C178.517421,34.2692465 178.512431,34.3879928 178.50245,34.4610674 L178.50245,34.4610674 Z M183.703218,38.8843673 L183.703218,33.1769677 C184.383422,32.7563218 185.092777,32.5459989 185.831285,32.5459989 C186.22969,32.5459989 186.521206,32.6607205 186.705833,32.8901637 C186.890459,33.1196069 186.982773,33.4733318 186.982773,33.9513385 L186.982773,33.9513385 L186.982773,38.8843673 L188.425777,38.8843673 L188.425777,33.4064109 C188.425777,33.3299298 188.420918,33.2582288 188.411201,33.1913079 C189.130274,32.7611019 189.844488,32.5459989 190.553844,32.5459989 C190.952249,32.5459989 191.243765,32.6607205 191.428392,32.8901637 C191.613019,33.1196069 191.705332,33.4733318 191.705332,33.9513385 L191.705332,33.9513385 L191.705332,38.8843673 L193.148336,38.8843673 L193.148336,33.5498129 C193.148336,32.8614833 192.968568,32.3308959 192.609032,31.9580507 C192.249495,31.5852055 191.734484,31.3987829 191.063997,31.3987829 C190.101994,31.3987829 189.139991,31.7381677 188.177988,32.4169371 C187.857321,31.7381677 187.245137,31.3987829 186.341438,31.3987829 C185.457172,31.3987829 184.548614,31.7142673 183.615763,32.3452361 L183.615763,32.3452361 L183.470005,31.6138859 L182.260214,31.6138859 L182.260214,38.8843673 L183.703218,38.8843673 Z" id="managementsystem" fill="#232F3E"></path>
                <path d="M26.9865143,5.68434189e-14 L33.2783826,3.63261187 L43.4170912,19.5866002 L30.6902516,38.800278 L10.6052453,36.1176592 L2.77111667e-13,17.7686584 L0.133009171,17.5200007 L0.13344688,17.5191081 L9.21875563,0.561472917 L26.9865143,5.68434189e-14 Z M29.471,23.829 L20.165,28.285 L20.1930838,28.305122 C20.387463,28.4710856 20.4402999,28.7607251 20.3053851,28.9944043 L17.2823606,34.2304363 C17.1305815,34.4933254 16.7986549,34.5858392 16.5409818,34.4370715 L13.699,32.796 L11.913081,35.2071466 L27.8090057,37.3305974 L18.6002316,32.014758 L19.1380208,31.0832798 L30.0577672,37.3877984 L32.576,25.622 L29.471,23.829 Z M41.6767741,20.2709179 L37.173,20.873 L34.2429213,25.9496213 C34.1014907,26.1945862 33.8036408,26.2916167 33.5552032,26.1833438 L31.5487634,35.5591469 L41.6767741,20.2709179 Z M2.43277705,19.8275147 L10.9950056,34.6412998 L12.762,32.255 L11.8753978,31.7433954 C11.6177247,31.5946277 11.5318807,31.260914 11.6836598,30.9980248 L13.375,28.066 L13.3055541,28.1584904 L2.43277705,19.8275147 Z M15.5567187,27.5221015 L13.6329758,30.8541219 L16.4323262,32.4703276 L18.3560691,29.1383073 L15.5567187,27.5221015 Z M21.3,12.981 L20.4513033,14.4510054 C20.2995242,14.7138946 19.9675976,14.8064083 19.7099245,14.6576407 L18.914,14.198 L17.264,26.604 L19.043,27.631 L28.5739143,23.0674382 C28.5585856,22.9508519 28.5803898,22.8277678 28.6442204,22.7172099 L30.344,19.772 L21.3,12.981 Z M15.686,12.334 L1.69343419,17.9073368 L13.859,27.228 L14.7066843,25.7619929 C14.8584634,25.4991037 15.19039,25.40659 15.4480631,25.5553576 L16.258,26.023 L17.907,13.617 L15.686,12.334 Z M32.5172793,19.2412866 L32.188,19.811 L32.3122893,19.9048688 L30.726,22.65 L33.3928869,24.1895127 L35.3166297,20.8574923 L32.5172793,19.2412866 Z M33.5027588,5.9907276 L33.931,18.153 L36.841,19.833 L41.8724883,19.159931 L33.5027588,5.9907276 Z M26.9734768,1.23377588 L21.7,7.555 L23.2825898,8.46960295 C23.5402629,8.61837057 23.6261069,8.95208433 23.4743278,9.21497347 L21.841,12.043 L30.886,18.833 L31.6672449,17.4811779 C31.819024,17.2182888 32.1509506,17.125775 32.4086237,17.2745426 L32.834,17.52 L32.3696811,4.34927588 L26.9734768,1.23377588 Z M9.60613986,2.11288582 L1.78316922,16.7146684 L14.7791138,11.5378814 C14.7711342,11.4306536 14.7943933,11.3194153 14.8526025,11.218594 L16.44,8.467 L9.60613986,2.11288582 Z M18.7256614,7.74267071 L16.8019185,11.074691 L19.6012689,12.6908968 L21.5250118,9.35887642 L18.7256614,7.74267071 Z M25.6727367,1.11672383 L10.6270397,1.59263541 L16.992,7.511 L17.875627,5.98256204 C18.0274061,5.71967289 18.3593327,5.62715912 18.6170058,5.77592675 L20.756,7.01 L25.6727367,1.11672383 Z" id="Combined-Shape" fill="url(#linearGradient-1)"></path>
            </g>
        </g>
    </g>
</svg>